<?xml version="1.0" standalone="no"?>
<!DOCTYPE svg PUBLIC "-//W3C//DTD SVG 20010904//EN"
 "http://www.w3.org/TR/2001/REC-SVG-20010904/DTD/svg10.dtd">
<svg version="1.0" xmlns="http://www.w3.org/2000/svg"
 width="2000.000000pt" height="2000.000000pt" viewBox="0 0 2000.000000 2000.000000"
 preserveAspectRatio="xMidYMid meet">
<metadata>
Created by potrace 1.10, written by Peter Selinger 2001-2011
</metadata>
<g transform="translate(0.000000,2000.000000) scale(0.100000,-0.100000)"
fill="#000000" stroke="none">
<path d="M14871 18523 c-16 -64 -611 -2317 -946 -3588 -175 -660 -319 -1202
-320 -1204 -2 -2 -50 39 -107 91 -961 876 -2202 1358 -3498 1358 -1255 0
-2456 -451 -3409 -1279 -161 -140 -424 -408 -560 -571 -507 -607 -870 -1320
-1062 -2090 -58 -232 -386 -1479 -2309 -8759 -148 -563 -270 -1028 -270 -1033
0 -4 614 -8 1365 -8 l1364 0 10 38 c16 63 611 2316 946 3587 175 660 319 1202
320 1204 2 2 50 -39 107 -91 543 -495 1169 -862 1863 -1093 1707 -568 3581
-211 4965 946 252 210 554 524 767 796 111 143 312 445 408 613 229 406 408
854 525 1320 57 225 380 1451 2310 8759 148 563 270 1028 270 1033 0 4 -614 8
-1365 8 l-1364 0 -10 -37z m-4498 -5957 c477 -77 889 -256 1245 -542 523 -419
850 -998 954 -1689 18 -121 18 -549 0 -670 -80 -529 -279 -972 -612 -1359
-412 -480 -967 -779 -1625 -878 -121 -18 -549 -18 -670 0 -494 74 -918 255
-1283 548 -523 419 -850 998 -954 1689 -18 121 -18 549 0 670 104 691 431
1270 954 1689 365 293 828 490 1283 545 50 6 104 13 120 15 72 10 495 -3 588
-18z"/>
</g>
</svg>
