<?xml version="1.0" standalone="no"?>
<!DOCTYPE svg PUBLIC "-//W3C//DTD SVG 20010904//EN"
 "http://www.w3.org/TR/2001/REC-SVG-20010904/DTD/svg10.dtd">
<svg version="1.0" xmlns="http://www.w3.org/2000/svg"
 width="2000.000000pt" height="2000.000000pt" viewBox="0 0 2000.000000 2000.000000"
 preserveAspectRatio="xMidYMid meet">
<metadata>
Created by potrace 1.10, written by Peter Selinger 2001-2011
</metadata>
<g transform="translate(0.000000,2000.000000) scale(0.100000,-0.100000)"
fill="#000000" stroke="none">
<path d="M14871 19963 c-16 -64 -611 -2317 -946 -3588 -175 -660 -319 -1202
-320 -1204 -2 -2 -50 39 -107 91 -961 876 -2202 1358 -3498 1358 -1255 0
-2456 -451 -3409 -1279 -161 -140 -424 -408 -560 -571 -507 -607 -870 -1320
-1062 -2090 -58 -232 -386 -1479 -2309 -8759 -148 -563 -270 -1028 -270 -1033
0 -4 614 -8 1365 -8 l1364 0 10 38 c16 63 611 2316 946 3587 175 660 319 1202
320 1204 2 2 50 -39 107 -91 543 -495 1169 -862 1863 -1093 1707 -568 3581
-211 4965 946 252 210 554 524 767 796 111 143 312 445 408 613 229 406 408
854 525 1320 57 225 380 1451 2310 8759 148 563 270 1028 270 1033 0 4 -614 8
-1365 8 l-1364 0 -10 -37z m-4498 -5957 c477 -77 889 -256 1245 -542 523 -419
850 -998 954 -1689 18 -121 18 -549 0 -670 -80 -529 -279 -972 -612 -1359
-412 -480 -967 -779 -1625 -878 -121 -18 -549 -18 -670 0 -494 74 -918 255
-1283 548 -523 419 -850 998 -954 1689 -18 121 -18 549 0 670 104 691 431
1270 954 1689 365 293 828 490 1283 545 50 6 104 13 120 15 72 10 495 -3 588
-18z"/>
<path d="M15606 1275 c-195 -50 -332 -184 -394 -387 -46 -147 -48 -349 -7
-508 46 -178 160 -305 322 -359 81 -27 318 -30 404 -5 84 25 146 62 163 99 28
58 16 195 -16 195 -7 0 -55 -21 -106 -47 -90 -46 -95 -47 -185 -48 -81 0 -99
3 -149 28 -126 62 -178 180 -178 400 0 173 38 287 120 361 63 57 102 70 200
69 92 0 143 -17 227 -73 77 -52 96 -36 96 80 0 114 -17 134 -152 182 -75 27
-262 34 -345 13z"/>
<path d="M17103 1271 c-209 -57 -339 -187 -400 -402 -14 -51 -18 -101 -18
-249 0 -200 12 -266 72 -384 51 -100 157 -183 282 -220 77 -23 355 -23 432 0
273 81 415 332 396 699 -16 299 -130 475 -352 545 -102 33 -312 38 -412 11z
m316 -222 c81 -34 137 -111 159 -216 31 -143 23 -327 -19 -437 -26 -72 -78
-129 -147 -163 -50 -25 -68 -28 -148 -28 -82 1 -98 4 -150 31 -109 55 -152
151 -161 355 -11 237 38 372 162 449 72 45 213 49 304 9z"/>
<path d="M7253 1273 c-7 -2 -13 -15 -13 -28 0 -13 83 -191 185 -395 l185 -370
0 -230 0 -230 28 -11 c15 -6 67 -9 115 -7 74 2 91 6 103 22 11 16 14 66 14
243 l0 223 166 331 c91 182 174 353 184 380 28 71 17 79 -115 79 -84 0 -107
-3 -123 -17 -22 -19 -116 -223 -192 -416 l-47 -119 -33 84 c-70 174 -191 434
-211 451 -17 14 -40 17 -128 16 -58 0 -112 -3 -118 -6z"/>
<path d="M10580 1274 c-40 -16 -40 -16 -40 -634 0 -499 2 -599 14 -616 13 -17
27 -19 121 -19 94 0 108 2 121 19 21 29 21 1203 0 1232 -12 16 -28 19 -108 21
-51 1 -100 0 -108 -3z"/>
<path d="M22 1254 l-22 -15 0 -613 0 -614 22 -6 c36 -9 164 -7 192 4 l26 10 0
208 0 209 133 6 c134 5 189 17 267 57 139 71 219 229 207 410 -12 187 -116
305 -306 346 -99 21 -488 20 -519 -2z m465 -213 c62 -31 88 -85 88 -181 0 -64
-5 -83 -28 -123 -40 -68 -87 -89 -209 -95 l-98 -5 0 218 0 218 103 -5 c79 -4
112 -10 144 -27z"/>
<path d="M1519 1251 l-24 -19 -3 -594 c-2 -506 0 -596 12 -613 13 -18 26 -20
121 -20 94 0 108 2 121 19 11 16 14 69 14 263 l0 243 53 0 c69 0 133 -32 169
-85 15 -22 62 -127 104 -233 47 -118 83 -196 94 -202 29 -15 213 -13 235 3 25
19 18 47 -56 225 -85 205 -124 276 -177 323 -25 21 -43 40 -41 42 2 1 21 10
42 20 132 60 208 220 177 373 -16 76 -39 120 -87 165 -95 91 -176 109 -489
109 -223 0 -244 -1 -265 -19z m500 -210 c110 -56 105 -228 -8 -290 -37 -20
-63 -25 -148 -29 l-103 -5 0 178 0 178 108 -5 c84 -4 117 -10 151 -27z"/>
<path d="M3089 1251 l-24 -19 0 -592 0 -592 24 -19 c22 -18 43 -19 360 -19
249 0 340 3 349 12 16 16 16 160 0 176 -9 9 -77 12 -245 12 l-233 0 0 180 0
180 200 0 c230 0 220 -5 220 100 0 105 10 100 -220 100 l-200 0 0 150 0 150
235 0 235 0 10 26 c6 14 10 47 10 74 0 27 -4 60 -10 74 l-10 26 -339 0 c-319
0 -340 -1 -362 -19z"/>
<path d="M4370 1244 c-6 -14 -10 -49 -10 -79 0 -30 4 -65 10 -79 l10 -26 165
0 165 0 0 -514 c0 -465 2 -515 17 -527 22 -19 174 -25 213 -9 l30 12 0 519 0
519 164 0 c195 0 190 -2 190 105 0 46 -4 79 -13 89 -12 14 -62 16 -472 16
l-459 0 -10 -26z"/>
<path d="M5810 1244 c-6 -14 -10 -49 -10 -79 0 -30 4 -65 10 -79 l10 -26 165
0 165 0 0 -514 c0 -465 2 -515 17 -527 22 -19 174 -25 213 -9 l30 12 0 519 0
519 164 0 c195 0 190 -2 190 105 0 46 -4 79 -13 89 -12 14 -62 16 -472 16
l-459 0 -10 -26z"/>
<path d="M8870 1252 l-25 -20 0 -592 0 -592 25 -20 c23 -19 36 -20 285 -15
287 4 325 10 451 72 135 66 234 204 268 377 23 111 21 295 -3 390 -53 208
-179 336 -386 394 -47 14 -116 18 -325 22 -254 3 -267 3 -290 -16z m465 -193
c76 -14 140 -47 186 -96 79 -82 104 -173 97 -354 -4 -103 -9 -134 -30 -186
-61 -150 -151 -202 -365 -211 l-123 -5 0 432 0 431 88 0 c49 0 115 -5 147 -11z"/>
<path d="M11549 1251 l-24 -19 -3 -594 c-2 -506 0 -596 12 -613 13 -18 26 -20
121 -20 94 0 108 2 121 19 11 16 14 67 14 253 l0 233 199 0 199 0 11 31 c14
42 14 121 -1 154 l-11 25 -199 0 -198 0 0 170 0 170 210 0 c242 0 230 -6 230
105 0 114 28 105 -339 105 -299 0 -320 -1 -342 -19z"/>
<path d="M12909 1251 l-24 -19 -3 -594 c-2 -506 0 -596 12 -613 13 -18 26 -20
121 -20 94 0 108 2 121 19 11 16 14 67 14 253 l0 233 199 0 199 0 11 31 c14
42 14 121 -1 154 l-11 25 -199 0 -198 0 0 170 0 170 210 0 c242 0 230 -6 230
105 0 114 28 105 -339 105 -299 0 -320 -1 -342 -19z"/>
<path d="M18573 1255 c-12 -9 -27 -32 -33 -53 -6 -23 -10 -243 -10 -598 0
-466 2 -563 14 -579 12 -16 29 -20 95 -23 50 -3 93 1 111 8 l30 12 2 516 3
515 175 -512 c202 -593 174 -545 321 -539 48 1 93 8 99 14 5 5 93 244 195 530
l184 519 1 -521 0 -521 25 -11 c31 -15 154 -16 189 -2 l26 10 0 600 0 601 -25
24 c-23 24 -29 25 -160 25 -155 0 -191 -10 -222 -61 -11 -19 -87 -213 -168
-432 -82 -218 -152 -394 -155 -390 -4 5 -72 187 -151 407 -78 219 -152 410
-163 423 -34 44 -73 53 -223 53 -108 0 -143 -3 -160 -15z"/>
<path d="M14305 291 c-48 -20 -60 -48 -60 -142 0 -83 2 -90 28 -116 26 -26 33
-28 112 -28 79 0 86 2 112 27 23 24 28 38 31 97 5 93 -10 139 -54 157 -36 15
-137 18 -169 5z"/>
</g>
</svg>
